<?xml version="1.0" encoding="UTF-8" standalone="no"?>
<svg
   version="1.1"
   id="Layer_1"
   x="0px"
   y="0px"
   width="100%"
   viewBox="0 0 1024 576"
   enable-background="new 0 0 1024 576"
   xml:space="preserve"
   sodipodi:docname="Clocked_In_Logo.svg"
   inkscape:version="1.3.2 (091e20e, 2023-11-25, custom)"
   xmlns:inkscape="http://www.inkscape.org/namespaces/inkscape"
   xmlns:sodipodi="http://sodipodi.sourceforge.net/DTD/sodipodi-0.dtd"
   xmlns="http://www.w3.org/2000/svg"
   xmlns:svg="http://www.w3.org/2000/svg"><defs
   id="defs12" /><sodipodi:namedview
   id="namedview12"
   pagecolor="#ffffff"
   bordercolor="#000000"
   borderopacity="0.25"
   inkscape:showpageshadow="2"
   inkscape:pageopacity="0.0"
   inkscape:pagecheckerboard="0"
   inkscape:deskcolor="#d1d1d1"
   inkscape:zoom="2.2946444"
   inkscape:cx="540.60665"
   inkscape:cy="280.43562"
   inkscape:window-width="3840"
   inkscape:window-height="2089"
   inkscape:window-x="-8"
   inkscape:window-y="-8"
   inkscape:window-maximized="1"
   inkscape:current-layer="Layer_1" />
<path
   id="path1"
   style="opacity:1;fill:#d9ba67;fill-opacity:1;stroke-width:1.97342"
   d="m 489.12147,131.06736 c -6.86307,0.0387 -13.78311,0.55518 -20.7133,1.57258 -33.8131,4.96398 -63.39072,20.00776 -86.56101,45.41582 -32.60029,35.7489 -43.99295,78.56277 -37.09813,125.90623 2.65427,18.22549 10.76215,35.10119 20.82892,51.54423 4.64335,6.4388 8.40244,12.75749 13.31294,17.99211 34.22208,36.48112 75.92221,54.63115 126.28781,48.73826 43.40331,-5.07822 77.87201,-26.15663 103.67047,-61.48461 3.97239,-5.43966 3.77582,-9.30691 -2.40126,-12.70006 -5.23451,-2.87547 -9.79619,-6.90375 -15.11291,0.39698 -29.57542,40.61208 -69.87112,56.58696 -119.29988,51.47872 -53.62239,-5.54172 -101.78063,-55.01107 -105.74411,-108.82761 -0.10639,-1.4448 -0.10001,-2.75273 0.004,-3.96998 v -0.47022 -1.40685 c 2e-5,-0.70187 -1.2e-4,-1.40256 0,-2.10446 2.2e-4,-1.25036 0.002,-2.49994 0.004,-3.7503 10e-4,-1.27515 0.01,-2.55157 0.0197,-3.82737 -0.10518,-0.18372 -0.17465,-0.43201 -0.17346,-0.74773 9.4e-4,-0.27249 0.008,-0.54478 0.0119,-0.81713 -0.17939,-0.17623 -0.31163,-0.47507 -0.32761,-0.89807 -0.0397,-1.0473 -0.0393,-2.09778 0,-3.14513 0.0418,-0.73161 0.13281,-1.45526 0.28907,-2.17 -0.29044,-3.35538 0.16675,-6.61245 0.56274,-9.85173 1.98932,-16.27194 7.91502,-31.09703 16.30388,-45.07279 17.44979,-29.07082 42.51052,-49.06243 75.37956,-56.21185 54.68565,-11.89481 99.63145,5.43394 133.32971,50.48814 4.84443,6.47696 8.8246,3.31123 13.15103,-0.0616 4.14862,-3.23432 10.21283,-4.9215 4.89503,-12.77332 -27.27271,-40.26921 -72.5768,-63.51299 -120.61805,-63.24219 z M 384.26384,271.83983 c -4.79623,-0.0656 -9.58195,0.045 -14.29962,1.32589 0.002,0.0159 0.004,0.0331 0.008,0.0462 0.12097,0.36931 0.20966,0.75208 0.30063,1.12932 0.22386,0.98335 0.41175,1.97198 0.61285,2.96014 0.18688,0.93346 0.31949,1.87691 0.43554,2.82138 0.0463,0.45338 0.10066,0.90788 0.15807,1.36061 0.85937,-0.0699 1.81898,-0.0661 2.96398,0.0693 5.15093,0.61073 10.48692,-0.29821 15.73733,-0.55503 3.22583,-0.15787 7.52207,0.37432 7.24232,-4.35927 -0.23415,-3.96214 -4.0687,-4.68732 -7.54683,-4.71001 -1.86887,-0.0119 -3.74164,-0.0632 -5.61193,-0.0886 z m -15.39811,10.1909 c 3.7e-4,0.0604 0.004,0.12078 0.004,0.18116 0.008,-0.004 0.0139,-0.0119 0.0231,-0.0157 -0.008,-0.0554 -0.0197,-0.11031 -0.0271,-0.16576 z" />
<path
   fill="#000000"
   opacity="1"
   stroke="none"
   d="m 288.34013,224.89769 c 26.52667,11.61094 38.69269,32.95127 34.90813,60.23225 -2.95923,21.33171 -21.19802,38.97437 -44.48108,43.02722 -30.35402,5.28375 -60.22855,-16.56208 -62.52291,-45.72 -2.66806,-33.90688 20.31683,-60.03146 52.88247,-60.04829 6.23399,-0.004 12.51839,-0.21682 19.21339,2.50882 m 13.76352,43.82135 c -3.07957,-14.97577 -11.53588,-24.99083 -27.03369,-27.28027 -15.55429,-2.2978 -26.93914,3.82898 -34.36828,17.27625 -6.78275,12.27727 -5.14887,28.42695 4.01016,39.63718 8.54165,10.4545 23.28106,14.48086 36.33092,9.92449 14.74036,-5.14658 22.53357,-18.95016 21.06089,-39.55765 z"
   id="path2"
   style="stroke-width:1.97342" />
<path
   fill="#000000"
   opacity="1"
   stroke="none"
   d="m 767.10125,246.54475 c 24.07016,36.64442 -3.04747,76.8095 -37.73171,80.17887 -13.11321,1.27383 -26.21416,0.48815 -39.31907,0.66175 -5.66409,0.075 -7.40012,-2.47142 -7.32532,-8.65155 0.35642,-29.45206 0.0865,-58.91611 -0.39001,-88.36899 -0.0711,-4.38784 1.41034,-6.50585 5.06005,-6.6699 20.60005,-0.92562 41.36343,-2.72261 60.89151,6.37902 7.57007,3.52827 13.75834,8.85726 18.81455,16.4708 m -59.50338,-3.32499 c -6.23368,0.54739 -5.71551,5.33274 -5.77393,9.51492 -0.16892,12.11338 -0.29593,24.2301 -0.20716,36.3438 0.15668,21.36225 0.74593,21.8218 22.32548,19.88082 20.4695,-1.84112 31.71517,-14.85392 30.77543,-35.61139 -0.87301,-19.28511 -13.20405,-30.4405 -33.57308,-30.35388 -3.92915,0.0158 -7.85796,0.0902 -13.54674,0.22573 z"
   id="path3"
   style="stroke-width:1.97342" />
<path
   fill="#000000"
   opacity="1"
   stroke="none"
   d="m 33.228997,263.23717 c -6.601747,23.13658 4.122146,42.84815 25.330341,46.95167 9.955094,1.92618 18.598056,-2.31231 26.762955,-7.48195 4.046613,-2.56218 7.802799,-4.75671 12.398459,-0.63578 6.512468,5.83968 6.568758,9.39316 -0.41466,14.74842 C 77.419031,332.06997 46.89417,332.31598 29.688522,317.3645 8.8641819,299.2684 4.1846559,270.87363 18.061993,246.81653 33.247546,220.4916 75.65903,213.80866 98.483002,233.998 c 3.717338,3.28823 4.395578,6.30042 1.21334,10.05769 -3.31457,3.91348 -5.9395,9.26266 -12.712975,5.24701 -5.62348,-3.33393 -11.137414,-7.08333 -17.867059,-7.95055 -16.962479,-2.18586 -28.670811,4.75714 -35.887311,21.88502 z"
   id="path4"
   style="stroke-width:1.97342" />
<path
   fill="#000000"
   opacity="1"
   stroke="none"
   d="m 970.72504,289.24168 c 2.88074,3.57549 5.37127,6.57579 8.58725,10.4502 4.04441,-5.81239 3.91505,-10.67811 3.93564,-15.44304 0.0723,-16.75187 -0.008,-33.50471 0.13913,-50.25572 0.0353,-4.04789 -1.01961,-9.36804 5.52869,-9.47557 6.01349,-0.0987 6.58649,4.73439 6.55489,9.04011 -0.053,7.2066 -0.5662,14.41844 -1.1092,21.61119 -1.4639,19.39481 2.8124,38.6394 1.457,58.00139 -0.3338,4.7692 2.5725,11.30361 -4.63294,13.47467 -6.42401,1.93557 -9.23647,-3.32532 -12.47015,-7.45931 -15.9751,-20.42375 -31.96186,-40.83868 -48.04052,-61.18084 -1.93151,-2.44354 -3.09938,-5.99039 -7.18114,-6.2455 -3.88337,2.48401 -2.39752,6.41931 -2.41776,9.78039 -0.1113,18.39345 -0.008,36.78811 -0.0924,55.18183 -0.0207,4.51905 0.6332,10.16424 -5.97303,10.43622 -7.48527,0.30809 -6.63672,-5.74258 -6.65358,-10.58991 -0.095,-27.26246 -0.19143,-54.52557 -0.0704,-81.78745 0.0177,-3.9024 -1.621,-9.07303 4.41215,-10.59858 5.28551,-1.33655 8.72153,1.60423 11.69674,5.43066 15.30839,19.68836 30.62534,39.37006 46.32967,59.62926 z"
   id="path5"
   style="stroke-width:1.97342" />
<path
   fill="#000000"
   opacity="1"
   stroke="none"
   d="m 595.3381,327.49456 c -4.55812,-0.0569 -8.18309,0.0612 -11.77643,-0.22148 -3.24228,-0.25513 -5.68999,-1.83478 -5.74153,-5.50415 -0.21656,-15.40017 -0.31906,-30.80211 -0.57032,-46.20165 -0.11525,-7.07363 3.1054,-9.88095 10.22131,-9.7608 16.74956,0.28286 33.50768,0.0947 50.26206,0.0395 5.80912,-0.0197 10.59778,0.99167 10.64597,8.35048 0.0507,7.72137 -4.27304,10.36928 -11.30747,10.2736 -10.51106,-0.14308 -21.03006,0.0206 -31.53293,-0.33156 -6.64575,-0.22281 -9.23635,3.05082 -8.26578,9.00652 0.96421,5.91655 -3.82832,15.35173 7.7245,15.72214 13.78435,0.44195 27.59508,0.33659 41.3885,0.10991 6.59924,-0.10837 9.68333,2.34451 9.6679,9.15586 -0.0158,6.6481 -2.85113,9.52774 -9.50555,9.46018 -16.75305,-0.17011 -33.50864,-0.0825 -51.21023,-0.0985 z"
   id="path6"
   style="stroke-width:1.97342" />
<path
   fill="#000000"
   opacity="1"
   stroke="none"
   d="m 127.11867,248.58547 c -0.002,-4.2584 0.17464,-7.55312 -0.0395,-10.82223 -0.5174,-7.89831 0.0254,-14.47154 10.67533,-14.57592 10.58665,-0.10374 10.05546,6.7054 10.00586,13.94193 -0.13736,20.02596 0.22522,40.05958 -0.2082,60.0772 -0.18768,8.66814 2.1948,12.65707 11.67367,12.02806 11.44201,-0.7593 22.97025,-0.30233 34.45995,-0.21372 3.96781,0.0306 8.75046,0.1022 7.93334,5.94558 -0.69095,4.94206 1.40255,12.35099 -7.42017,12.40848 -19.69591,0.12828 -39.39358,0.0843 -59.08991,-0.0197 -7.25028,-0.0381 -8.10052,-4.95568 -8.06554,-10.82024 0.13321,-22.32428 0.0674,-44.64978 0.0751,-67.95011 z"
   id="path7"
   style="stroke-width:1.97342" />
<path
   fill="#000000"
   opacity="1"
   stroke="none"
   d="m 547.45839,232.32449 c -10.82319,11.50556 -21.02483,22.63355 -31.55232,33.44425 -6.32889,6.49919 -6.05043,12.6998 -0.20332,18.99525 10.49925,11.30414 20.96709,22.64617 31.77287,33.65343 5.40279,5.50346 4.95801,9.94192 -0.42815,14.9844 -5.96816,5.5874 -9.76408,2.18442 -13.85734,-2.45781 -8.68096,-9.84504 -17.63619,-19.44797 -26.33695,-29.2759 -4.41353,-4.98527 -9.00354,-9.31199 -15.82459,-11.01962 -5.62628,-1.40853 -8.69999,-5.6899 -9.1111,-11.52321 -0.4012,-5.69186 -0.62101,-12.69242 5.23514,-14.78722 14.01843,-5.01451 21.00342,-17.33206 30.63213,-26.88913 5.57466,-5.53322 10.68052,-11.54197 15.93978,-17.38845 3.37366,-3.75028 6.63059,-8.17136 12.11937,-3.23108 4.76596,4.28983 8.06877,9.06136 1.61448,15.49509 z"
   id="path8"
   style="stroke-width:1.97342" />
<path
   fill="#000000"
   opacity="1"
   stroke="none"
   d="m 606.95884,243.16936 c -6.22561,-0.0263 -11.46993,-0.0823 -16.71414,-0.0694 -12.07719,0.03 -12.59283,-0.91352 -12.01245,-12.89917 0.26203,-5.40999 2.84325,-7.00657 7.23395,-7.02837 19.99211,-0.0992 39.9851,-0.0933 59.97727,-0.002 6.91892,0.0316 8.75213,4.38056 8.50281,10.51265 -0.25607,6.30208 -2.83102,9.65125 -9.62299,9.52784 -12.12387,-0.22021 -24.25494,-0.0477 -37.36445,-0.0412 z"
   id="path9"
   style="stroke-width:1.97342" />
<path
   fill="#000000"
   opacity="1"
   stroke="none"
   d="m 871.60703,282.0806 c -0.0197,12.82122 -0.074,24.65595 -0.0388,36.49037 0.0139,4.70225 -0.81001,8.89991 -6.63381,8.85198 -5.36429,-0.0442 -5.99772,-4.06481 -5.99604,-8.33353 0.0119,-28.92918 0.005,-57.85836 -0.01,-86.78753 -0.002,-4.24569 0.51047,-8.1656 6.00531,-8.27552 6.06531,-0.12137 6.64647,4.14461 6.64949,8.74289 0.01,16.10824 0.0159,32.2165 0.0244,49.31134 z"
   id="path10"
   style="stroke-width:1.97342" />
<path
   fill="#000000"
   opacity="1"
   stroke="none"
   d="m 483.98108,173.20956 c 1.40233,-5.39638 -4.09355,-13.90247 4.52496,-14.10624 8.8553,-0.20941 5.22536,8.49081 5.94697,13.75611 0.0436,0.31875 0.0306,0.65303 -0.008,0.97402 -0.56765,4.80234 1.6065,12.18399 -6.096,11.87007 -7.53545,-0.30708 -3.74783,-7.4106 -4.3686,-12.49396 z"
   id="path11"
   style="stroke-width:1.97342" />
<path
   fill="#000000"
   opacity="1"
   stroke="none"
   d="m 484.26349,389.90965 c -0.12769,-5.48565 -0.24169,-10.07112 -0.24368,-14.65662 -0.001,-3.07901 0.34815,-6.15613 4.34874,-6.4333 4.35275,-0.30158 5.68878,2.72071 5.8379,6.26971 0.19221,4.5742 0.0723,9.16897 -0.0991,13.74792 -0.0863,2.30565 -0.51974,4.86135 -3.0592,5.67531 -3.29024,1.05459 -5.75867,-0.14977 -6.78475,-4.60302 z"
   id="path12"
   style="stroke-width:1.97342" />
<path
   style="opacity:1;fill:#d9ba67;fill-opacity:1;stroke-width:0.152031"
   d="m 375.1146,281.54793 c -0.54352,-0.0673 -1.57199,-0.13025 -2.2855,-0.13992 l -1.29732,-0.0177 -0.18569,-1.55832 c -0.15808,-1.32634 -0.82644,-4.87732 -1.17037,-6.21764 -0.10198,-0.39743 -0.0865,-0.40637 1.23956,-0.71462 3.38515,-0.78692 4.46524,-0.85931 12.82114,-0.85931 6.92097,0 7.94796,0.0304 8.84986,0.26249 2.91764,0.75064 4.09335,2.02024 4.19175,4.52647 0.0438,1.11406 0.002,1.38538 -0.3002,1.96759 -0.8054,1.54985 -1.8728,1.91235 -6.28011,2.13274 -1.67234,0.0837 -4.23787,0.2578 -5.70116,0.38703 -3.15427,0.27861 -8.48991,0.40351 -9.88198,0.23132 z"
   id="path22" /><path
   style="opacity:1;fill:#000000;fill-opacity:1;stroke-width:0.152031"
   d="m 375.03858,281.54831 c -0.58531,-0.0663 -1.61631,-0.12887 -2.29111,-0.13933 l -1.22687,-0.0197 -0.18176,-1.5635 c -0.15432,-1.32812 -0.81445,-4.85363 -1.16312,-6.21245 -0.10198,-0.39745 -0.0865,-0.40637 1.23956,-0.71431 3.1359,-0.72819 4.33439,-0.8194 11.74159,-0.89348 7.48252,-0.0748 9.13462,0.0139 10.86553,0.58185 1.28149,0.42067 2.3358,1.23611 2.8237,2.1839 0.56719,1.10183 0.63138,3.06312 0.13163,4.02465 -0.46407,0.89302 -1.21799,1.46513 -2.29964,1.74505 -0.48929,0.12669 -2.26953,0.30034 -3.98432,0.38876 -1.70491,0.088 -4.2829,0.26361 -5.72884,0.3904 -3.12909,0.27443 -8.43546,0.39589 -9.92647,0.22727 z"
   id="path23" /></svg>
